<?xml version="1.0"?><svg id="Capa_2" xmlns="http://www.w3.org/2000/svg" viewBox="0 0 240.15 170.09"><g id="Capa_6"><path d="M24.15,163.49h-13.1l-2.1,6.2H0l12.7-35.1h9.9l12.7,35.1h-9.05l-2.1-6.2ZM21.95,156.89l-4.35-12.85-4.3,12.85h8.65Z" fill="#f20530"></path><path d="M66.7,141.79v27.9h-8.55v-3.8c-.87,1.23-2.04,2.22-3.53,2.97s-3.12,1.12-4.92,1.12c-2.13,0-4.02-.47-5.65-1.42-1.63-.95-2.9-2.33-3.8-4.12s-1.35-3.92-1.35-6.35v-16.3h8.5v15.15c0,1.87.48,3.32,1.45,4.35.97,1.03,2.27,1.55,3.9,1.55s2.98-.52,3.95-1.55c.96-1.03,1.45-2.48,1.45-4.35v-15.15h8.55Z" fill="#f20530"></path><path d="M72.78,148.14c1.08-2.17,2.56-3.83,4.43-5,1.87-1.17,3.95-1.75,6.25-1.75,1.83,0,3.51.38,5.02,1.15,1.52.77,2.71,1.8,3.58,3.1v-12.95h8.55v37h-8.55v-4c-.8,1.33-1.94,2.4-3.43,3.2s-3.21,1.2-5.17,1.2c-2.3,0-4.38-.59-6.25-1.78-1.87-1.18-3.34-2.87-4.43-5.05-1.08-2.18-1.62-4.71-1.62-7.58s.54-5.38,1.62-7.55ZM90.28,150.69c-1.18-1.23-2.62-1.85-4.32-1.85s-3.14.61-4.33,1.82c-1.18,1.22-1.78,2.89-1.78,5.03s.59,3.83,1.78,5.08,2.62,1.88,4.33,1.88,3.14-.62,4.32-1.85c1.18-1.23,1.78-2.92,1.78-5.05s-.59-3.82-1.78-5.05Z" fill="#f20530"></path><path d="M107.42,137.56c-.95-.88-1.42-1.97-1.42-3.28s.47-2.44,1.42-3.32c.95-.88,2.18-1.33,3.68-1.33s2.68.44,3.62,1.33,1.43,1.99,1.43,3.32-.48,2.39-1.43,3.28c-.95.88-2.16,1.33-3.62,1.33s-2.72-.44-3.68-1.33ZM115.35,141.79v27.9h-8.55v-27.9h8.55Z" fill="#f20530"></path><path d="M125.9,144.49v17.95c0,2,.37,3.38,1.1,4.12.73.75,2.03,1.12,3.9,1.12h3.05v2h-3.4c-2.37,0-4.11-.56-5.22-1.67-1.12-1.12-1.67-2.98-1.67-5.58v-17.95h-4.1v-1.95h4.1v-6.9h2.25v6.9h8.05v1.95h-8.05Z" fill="#020a1b"></path><path d="M139.67,148.74c1.12-2.1,2.67-3.72,4.65-4.85,1.98-1.13,4.24-1.7,6.78-1.7,2.87,0,5.3.7,7.3,2.1,2,1.4,3.4,3.18,4.2,5.35v-7.1h2.25v27.15h-2.25v-7.15c-.8,2.2-2.21,4.01-4.22,5.43-2.02,1.42-4.44,2.12-7.28,2.12-2.53,0-4.79-.58-6.78-1.73-1.98-1.15-3.53-2.78-4.65-4.9s-1.67-4.58-1.67-7.38.56-5.25,1.67-7.35ZM161.12,149.81c-.98-1.82-2.33-3.22-4.03-4.2-1.7-.98-3.6-1.47-5.7-1.47s-4.13.47-5.8,1.42c-1.67.95-2.97,2.33-3.9,4.12s-1.4,3.93-1.4,6.4.47,4.6,1.4,6.4,2.24,3.18,3.93,4.15c1.68.97,3.61,1.45,5.77,1.45s4.01-.49,5.73-1.48c1.71-.98,3.06-2.38,4.02-4.2.97-1.82,1.45-3.92,1.45-6.32s-.49-4.46-1.47-6.28Z" fill="#020a1b"></path><path d="M179.05,144.29c2-1.4,4.42-2.1,7.25-2.1,2.53,0,4.79.57,6.78,1.7,1.98,1.13,3.53,2.75,4.65,4.85,1.12,2.1,1.67,4.55,1.67,7.35s-.56,5.26-1.67,7.38c-1.12,2.12-2.67,3.75-4.65,4.9-1.98,1.15-4.24,1.73-6.78,1.73-2.83,0-5.26-.7-7.28-2.1-2.02-1.4-3.42-3.2-4.22-5.4v7.1h-2.25v-37h2.25v17c.83-2.2,2.25-4,4.25-5.4ZM195.7,149.69c-.93-1.8-2.24-3.17-3.93-4.12s-3.62-1.42-5.82-1.42-4,.49-5.7,1.47c-1.7.98-3.03,2.38-4,4.2-.97,1.82-1.45,3.91-1.45,6.28s.48,4.51,1.45,6.32c.97,1.82,2.3,3.22,4,4.2,1.7.98,3.6,1.48,5.7,1.48s4.14-.48,5.82-1.45,2.99-2.35,3.93-4.15c.93-1.8,1.4-3.93,1.4-6.4s-.47-4.6-1.4-6.4Z" fill="#020a1b"></path><path d="M207.95,132.69v37h-2.25v-37h2.25Z" fill="#020a1b"></path><path d="M240.05,156.99h-23.45c.07,2.43.6,4.48,1.6,6.15s2.32,2.92,3.95,3.75,3.42,1.25,5.35,1.25c2.67,0,4.9-.66,6.7-1.98,1.8-1.32,2.93-3.11,3.4-5.38h2.35c-.53,2.77-1.9,5.01-4.1,6.73-2.2,1.72-4.98,2.58-8.35,2.58-2.54,0-4.8-.57-6.8-1.7-2-1.13-3.57-2.76-4.7-4.88-1.13-2.12-1.7-4.59-1.7-7.42s.56-5.3,1.68-7.4c1.12-2.1,2.67-3.71,4.67-4.83,2-1.12,4.28-1.67,6.85-1.67s4.86.56,6.77,1.67c1.92,1.12,3.38,2.6,4.38,4.45s1.5,3.84,1.5,5.97c0,1.2-.03,2.1-.1,2.7ZM236.62,149.04c-.95-1.67-2.24-2.91-3.88-3.72-1.63-.82-3.4-1.22-5.3-1.22s-3.66.41-5.28,1.22c-1.62.82-2.93,2.06-3.95,3.72-1.02,1.67-1.56,3.7-1.62,6.1h21.3c.1-2.4-.32-4.43-1.27-6.1Z" fill="#020a1b"></path><path d="M137.57,9.38c0-1.22-1.63-2.42-2.75-2.42h-6.02C127.78,2.77,124.67-.03,120.73,0c-3.87.03-7.07,2.55-7.73,6.9l-6.24.08c-1.16.01-2.62,1.2-2.62,2.43v10.7c0,1.42,1.23,2.52,2.62,2.52l28.48.03c1.08,0,2.38-1.5,2.38-2.48l-.04-10.81ZM120.74,10.43c-1.58,0-2.86-1.28-2.86-2.86s1.28-2.86,2.86-2.86,2.86,1.28,2.86,2.86-1.28,2.86-2.86,2.86Z" fill="#f20530"></path><path d="M103.85,54.53c-.23-.43-.02-.62.27-.78l5.25-2.84c.25-.11.53-.07.67.18l6.12,11.32,18.55-26.77,7.3.02c.16,0,.36.09.43.18s.08.4,0,.51l-26.71,38.28c-.11.16-.31.31-.44.3-.19-.01-.34-.15-.46-.37l-10.97-20.03Z" fill="#f20530"></path><path d="M150.17,10.63h-7.62v6.63h6.83c.93,0,1.68.75,1.68,1.68v72.5c0,.93-.75,1.68-1.68,1.68h-57.02c-.93,0-1.68-.75-1.68-1.68V18.94c0-.93.75-1.68,1.68-1.68h6.78v-6.63h-7.58c-4.28,0-7.75,3.47-7.75,7.75v73.61c0,4.28,3.47,7.75,7.75,7.75h58.61c4.28,0,7.75-3.47,7.75-7.75V18.38c0-4.28-3.47-7.75-7.75-7.75Z" fill="#f20530"></path></g></svg>